<?xml version="1.0" encoding="UTF-8" standalone="no"?>
<svg xmlns="http://www.w3.org/2000/svg" width="646" height="250" viewBox="0 0 646 250" id="svg8502" version="1.1">
  <title>Get it on GitLab</title>
  <g id="layer1">
    <rect style="color:#000000;display:inline;overflow:visible;visibility:visible;fill:#000000;fill-opacity:1;fill-rule:nonzero;stroke:#a6a6a6;stroke-width:4;stroke-miterlimit:4;stroke-dasharray:none;stroke-opacity:1;marker:none;enable-background:accumulate" id="rect3007" width="560" height="164" x="43" y="43" rx="20" ry="20"/>
    <text sodipodi:linespacing="100%" id="text3013" y="90.00479" x="219.95129" style="color:#000000;font-style:normal;font-variant:normal;font-weight:normal;font-stretch:normal;font-size:12.39519119px;line-height:100%;font-family:'DejaVu Sans';-inkscape-font-specification:'DejaVu Sans';letter-spacing:0px;word-spacing:0px;display:inline;overflow:visible;visibility:visible;fill:#ffffff;fill-opacity:1;fill-rule:nonzero;stroke:none;stroke-width:1px;marker:none;enable-background:accumulate" xml:space="preserve"><tspan y="90.00479" x="219.95129" id="tspan3015" sodipodi:role="line" style="font-style:normal;font-variant:normal;font-weight:normal;font-stretch:normal;font-size:34.125px;font-family:'DejaVu Sans';-inkscape-font-specification:'DejaVu Sans'">GET IT ON</tspan></text>
    <text xml:space="preserve" style="color:black;font-style:normal;font-variant:normal;font-weight:bold;font-stretch:normal;font-size:29.70882034px;line-height:100%;font-family:Rokkitt;-inkscape-font-specification:'Rokkitt Bold';text-align:start;letter-spacing:0px;word-spacing:0px;writing-mode:lr-tb;text-anchor:start;display:inline;overflow:visible;visibility:visible;fill:white;fill-opacity:1;fill-rule:nonzero;stroke:none;stroke-width:1px;marker:none;enable-background:accumulate" x="219.21259" y="176.9989" id="text5902" sodipodi:linespacing="100%"><tspan sodipodi:role="line" id="tspan5904" x="219.21259" y="176.9989" style="font-style:normal;font-variant:normal;font-weight:bold;font-stretch:normal;font-size:87.5px;line-height:100%;font-family:'Roboto Slab';-inkscape-font-specification:'Roboto Slab Bold';text-align:start;writing-mode:lr-tb;text-anchor:start;fill:white;fill-opacity:1">GitLab</tspan></text>
    <g id="gitlab-tanuki" transform="translate(70,62) scale(5.0417)">
      <path fill="#ffffff" d="m23.6004 9.5927-.0337-.0862L20.3.9814a.851.851 0 0 0-.3362-.405.8748.8748 0 0 0-.9997.0539.8748.8748 0 0 0-.29.4399l-2.2055 6.748H7.5375l-2.2057-6.748a.8573.8573 0 0 0-.29-.4412.8748.8748 0 0 0-.9997-.0537.8585.8585 0 0 0-.3362.4049L.4332 9.5015l-.0325.0862a6.0657 6.0657 0 0 0 2.0119 7.0105l.0113.0087.03.0213 4.976 3.7264 2.462 1.8633 1.4995 1.1321a1.0085 1.0085 0 0 0 1.2197 0l1.4995-1.1321 2.4619-1.8633 5.006-3.7489.0125-.01a6.0682 6.0682 0 0 0 2.0094-7.003z"/>
    </g>
  </g>
</svg>
